<svg width="690" height="664" viewBox="0 0 690 664" fill="none" xmlns="http://www.w3.org/2000/svg">
<circle cx="338" cy="327" r="327" fill="#FFF1E0"/>
<path d="M49 503L416.329 387.196C448.401 377.086 483.406 383.771 509.494 404.989L630 503" stroke="#00A07D" stroke-width="40" stroke-linecap="round"/>
<path d="M95 551L401.345 467.292C428.804 459.789 458.159 464.343 482.053 479.814L592 551" stroke="#00A07D" stroke-width="30" stroke-linecap="round"/>
<path d="M25 447L419.844 290.798C456.452 276.316 498.15 284.66 526.366 312.113L665 447" stroke="#00A07D" stroke-width="50" stroke-linecap="round"/>
<circle cx="299.5" cy="152.5" r="106.5" fill="#D29A39"/>
<path d="M237.312 291.826C238.921 285.112 234.782 278.366 228.069 276.757C221.355 275.148 214.609 279.287 213 286L237.312 291.826ZM213 286L161 503L185.312 508.826L237.312 291.826L213 286Z" fill="#354B54"/>
<path d="M109.934 520.012C116.167 484.659 149.88 461.053 185.233 467.287V467.287C220.586 473.521 244.192 507.234 237.959 542.587L226.498 607.584C224.58 618.462 214.207 625.725 203.329 623.807L114.696 608.179C103.818 606.261 96.5548 595.888 98.4729 585.01L109.934 520.012Z" fill="#354B54"/>
<path d="M229.678 568.495L130.868 587.379C127.463 588.029 125 591.007 125 594.474C125 597.495 126.88 600.197 129.713 601.247L255.178 647.763C266.304 651.888 278.075 654 289.941 654H382.361C392.355 654 402.25 652.024 411.477 648.185L513.529 605.728C520.299 602.912 521.614 593.889 515.93 589.257C515.312 588.754 514.759 588.177 514.283 587.539L496.493 563.697C477.618 538.401 447.908 523.5 416.346 523.5H375.066C363.444 523.5 351.912 525.526 340.986 529.486L244.987 564.286C240.003 566.092 234.884 567.5 229.678 568.495Z" fill="#00A6E2" stroke="#00A6E2" stroke-width="20"/>
</svg>
